<?xml version="1.0" standalone="no"?>
<!DOCTYPE svg PUBLIC "-//W3C//DTD SVG 20010904//EN"
 "http://www.w3.org/TR/2001/REC-SVG-20010904/DTD/svg10.dtd">
<svg version="1.0" xmlns="http://www.w3.org/2000/svg"
 width="500.000000pt" height="500.000000pt" viewBox="0 0 500.000000 500.000000"
 preserveAspectRatio="xMidYMid meet">
<metadata>
Created by potrace 1.11, written by Peter Selinger 2001-2013
</metadata>
<g transform="translate(0.000000,500.000000) scale(0.100000,-0.100000)"
fill="#000000" stroke="none">
<path d="M2250 4990 c-148 -19 -194 -26 -278 -45 -34 -8 -74 -17 -90 -20 -92
-16 -459 -155 -501 -189 -10 -8 -130 -11 -405 -13 -215 -1 -398 -2 -407 -2
-11 -1 -15 -11 -15 -38 l1 -38 -45 -1 c-25 -1 -52 -2 -60 -3 -13 -1 -15 -48
-15 -363 l1 -363 -27 -40 c-188 -283 -330 -653 -383 -1005 -28 -180 -29 -581
-2 -730 3 -14 7 -42 10 -63 19 -127 87 -367 142 -504 50 -123 135 -292 202
-398 l57 -90 0 -365 0 -365 391 -1 391 -2 69 -39 c181 -103 473 -216 634 -247
14 -2 57 -11 95 -19 69 -15 103 -20 240 -37 70 -9 487 -6 535 3 14 3 47 8 73
12 27 4 59 8 70 11 12 2 34 6 49 9 242 44 530 152 762 284 37 21 48 22 360 23
l322 0 2 36 c2 20 5 38 7 40 2 2 28 5 57 5 l53 2 1 312 2 311 38 61 c108 170
155 259 222 416 84 200 139 405 172 645 14 105 17 184 15 360 -1 124 -6 236
-9 250 -3 14 -8 45 -11 70 -3 25 -7 56 -10 70 -3 14 -8 39 -11 55 -21 116 -91
350 -140 468 -46 111 -131 274 -199 381 l-66 106 -1 390 c0 288 -3 390 -11
391 -7 0 -208 1 -447 1 l-435 1 -73 34 c-140 65 -336 138 -424 158 -13 2 -50
11 -83 19 -93 23 -144 32 -284 50 -102 14 -448 17 -541 6z m500 -294 c30 -4
91 -14 135 -22 106 -19 123 -22 145 -29 10 -3 27 -8 37 -10 10 -2 55 -15 100
-29 l81 -26 -39 -152 c-21 -83 -40 -153 -42 -155 -3 -2 -24 3 -48 11 -150 49
-278 78 -419 93 -124 14 -440 6 -493 -12 -7 -2 -28 -6 -47 -9 -50 -7 -183 -40
-257 -64 l-61 -20 -32 122 c-17 66 -35 133 -40 147 -4 14 -5 31 -1 37 17 28
345 105 501 118 41 3 76 7 78 9 6 6 346 -2 402 -9z m1845 -1495 c20 -60 38
-121 41 -137 3 -15 7 -31 9 -34 2 -4 7 -22 10 -41 3 -19 12 -65 20 -104 37
-186 41 -515 9 -715 -26 -161 -110 -470 -132 -484 -4 -2 -7 364 -7 814 0 450
3 816 7 814 3 -2 23 -53 43 -113z m-4160 -696 c0 -421 -3 -765 -6 -765 -4 0
-9 8 -12 18 -61 208 -76 263 -81 292 -3 19 -8 47 -11 63 -11 60 -14 79 -21
154 -21 205 -8 489 33 678 8 39 16 78 18 88 11 50 72 237 77 237 2 0 3 -344 3
-765z m987 -1555 c101 -73 341 -195 463 -235 50 -16 91 -30 93 -31 1 -1 21
-70 43 -155 22 -85 42 -159 44 -165 2 -8 103 -12 354 -13 193 0 357 2 365 5 8
3 17 21 20 40 7 33 17 40 55 34 7 -1 24 1 36 4 20 5 27 21 51 120 l28 115 95
31 c149 48 264 100 421 191 14 8 27 16 30 19 8 8 129 90 132 90 2 0 3 -30 2
-67 -1 -38 -3 -125 -4 -194 l-2 -125 -51 -31 c-43 -25 -182 -94 -272 -134 -25
-11 -230 -79 -256 -85 -11 -2 -27 -6 -36 -9 -60 -15 -229 -45 -293 -51 -149
-16 -468 -9 -570 11 -14 3 -41 7 -60 10 -45 6 -269 62 -295 74 -11 5 -49 19
-85 31 -74 26 -316 141 -363 173 l-32 22 -3 193 c-2 105 -1 192 2 192 2 0 42
-27 88 -60z"/>
</g>
</svg>
